<?xml version="1.0" encoding="UTF-8" standalone="no"?>
<!-- Created with Inkscape (http://www.inkscape.org/) -->
<svg xmlns:dc="http://purl.org/dc/elements/1.1/" xmlns:cc="http://creativecommons.org/ns#" xmlns:rdf="http://www.w3.org/1999/02/22-rdf-syntax-ns#" xmlns:svg="http://www.w3.org/2000/svg" xmlns="http://www.w3.org/2000/svg" xmlns:sodipodi="http://sodipodi.sourceforge.net/DTD/sodipodi-0.dtd" xmlns:inkscape="http://www.inkscape.org/namespaces/inkscape" version="1.1" width="241.89346" height="140.80878" id="svg2" inkscape:version="0.48.3.1 r9886" sodipodi:docname="Logo_SRF_1.svg">
  <sodipodi:namedview pagecolor="#ffffff" bordercolor="#666666" borderopacity="1" objecttolerance="10" gridtolerance="10" guidetolerance="10" inkscape:pageopacity="0" inkscape:pageshadow="2" inkscape:window-width="744" inkscape:window-height="480" id="namedview3021" showgrid="false" fit-margin-top="0" fit-margin-left="0" fit-margin-right="0" fit-margin-bottom="0" inkscape:zoom="0.98268024" inkscape:cx="355.57495" inkscape:cy="119.35494" inkscape:window-x="573" inkscape:window-y="0" inkscape:window-maximized="0" inkscape:current-layer="svg2"/>
  <metadata id="metadata8">
    <rdf:RDF>
      <cc:Work rdf:about="">
        <dc:format>image/svg+xml</dc:format>
        <dc:type rdf:resource="http://purl.org/dc/dcmitype/StillImage"/>
        <dc:title/>
      </cc:Work>
    </rdf:RDF>
  </metadata>
  <defs id="defs6"/>
  <path d="m 103.89345,0.58526766 0,140.03525234 138.00001,0 0,-140.03525234 z" id="path688" style="fill:#AF001E;fill-opacity:1;fill-rule:nonzero;stroke:none" inkscape:connector-curvature="0" sodipodi:nodetypes="ccccc"/>
  <path d="M 93.812896,140.80878 93.812896,0 0,0 l 0,140.80878 93.812896,0 z" id="path688-1" style="fill:#AF001E;fill-opacity:1;fill-rule:nonzero;stroke:none" inkscape:connector-curvature="0"/>
  <path d="m 24.241226,107.01467 c 0,11.40729 4.96654,16.9308 12.844726,16.9308 7.123011,0 11.354657,-3.85551 13.079337,-10.55731 l 1.309888,-5.12225 c 1.101602,-4.21948 2.341452,-6.02158 4.965846,-6.02158 3.875537,0 4.574835,2.6329 4.574835,8.99326 0,2.90105 -0.424908,7.95037 -0.566967,9.67754 -0.132093,1.79945 0.08782,2.28697 1.603148,2.56112 l 5.317756,0.82113 c 1.041786,0.14206 1.449014,-0.34902 1.583597,-1.25124 0.274152,-2.00132 0.625618,-7.04304 0.625618,-11.9454 0,-10.99606 -3.593834,-19.022703 -13.822257,-19.022703 -6.018918,0 -10.51403,2.64511 -12.864279,11.769443 l -1.309888,5.1027 c -0.889748,3.45184 -2.003162,5.04404 -4.555286,5.04404 -3.598889,0 -4.281576,-3.3131 -4.281576,-6.49079 0,-4.29175 0.354181,-8.634627 0.488764,-10.361793 0.134583,-1.80194 -0.08533,-2.28448 -1.603147,-2.56113 l -5.180905,-0.84067 c -1.03431,-0.13708 -1.44652,0.35649 -1.58359,1.25124 -0.27914,2.00879 -0.62562,6.425873 -0.62562,12.023593 z m 0.46921,-22.639563 c 0,1.38573 0.49114,1.79866 1.87686,1.79866 l 40.723847,0 c 1.375754,0 1.857305,-0.41293 1.857305,-1.79866 l 0,-6.35393 c 0,-1.38323 -0.481551,-1.79866 -1.857305,-1.79866 l -34.369913,0 0,-6.56899 c 0,-4.1472 1.520421,-6.138882 5.39596,-6.138882 3.524121,0 4.629883,1.574613 5.317757,3.167194 0.832429,2.001318 -0.06328,2.703018 2.561125,3.323598 l 2.913036,0.68427 c 0.827443,0.20936 1.226256,0.29326 1.505394,0.29326 0.68788,0 1.242422,-0.21782 2.072361,-0.70382 l 14.799786,-8.230795 c 1.173879,-0.69286 1.661799,-1.236103 1.661799,-2.893485 l 0,-7.546522 c 0,-0.964522 -0.623885,-2.145258 -2.346069,-1.036181 L 50.087086,60.679812 C 47.943705,57.290274 44.907128,53.4852 38.200336,53.4852 c -8.64083,0 -13.4899,4.834435 -13.4899,15.484057 l 0,15.40585 z m 0,-41.916432 c 0,1.38323 0.49113,1.798653 1.87686,1.798653 l 40.723847,0 c 1.378244,0 1.857305,-0.415423 1.857305,-1.798653 l 0,-6.373487 c 0,-1.378244 -0.479061,-1.779102 -1.857305,-1.779102 l -16.051022,0 0,-16.461585 c 0,-1.38074 -0.479055,-1.798653 -1.857305,-1.798653 l -4.848543,0 c -1.383229,0 -1.857304,0.417913 -1.857304,1.798653 l 0,16.461585 -9.403829,0 0,-18.123384 c 0,-1.38323 -0.493626,-1.798653 -1.876855,-1.798653 l -4.828989,0 c -1.38573,0 -1.87686,0.415423 -1.87686,1.798653 l 0,26.275973 z" id="path692" style="fill:#ffffff;fill-opacity:1;fill-rule:nonzero;stroke:none" inkscape:connector-curvature="0"/>
  <g transform="matrix(0.29536298,0,0,0.29536298,43.026916,10.190019)" id="layer1" style="fill:#ffffff">
    <g transform="matrix(3.543307,0,0,3.543307,0.00106713,-5.761719e-6)" style="fill:#ffffff;fill-rule:evenodd" id="Ebene_x0020_1">
      <g id="_72243192" style="fill:#ffffff">
        <path d="m 111.3083,24.295852 0,84.374708 -0.2924,0 28.95347,0 0.14626,0 0,-104.70056 c -1.02654,0.2739775 -12.50322,8.725881 -14.50511,10.061535 -1.43893,0.960115 -14.30222,9.805527 -14.30222,10.264317 z" style="fill:#ffffff" id="_47445264" inkscape:connector-curvature="0" sodipodi:nodetypes="ccccccccc"/>
      </g>
    </g>
  </g>
</svg>