<?xml version="1.0" encoding="utf-8"?>
<!-- Generator: Adobe Illustrator 23.0.1, SVG Export Plug-In . SVG Version: 6.00 Build 0)  -->
<!DOCTYPE svg PUBLIC "-//W3C//DTD SVG 1.1//EN" "http://www.w3.org/Graphics/SVG/1.1/DTD/svg11.dtd" [
	<!ENTITY ns_extend "http://ns.adobe.com/Extensibility/1.0/">
	<!ENTITY ns_ai "http://ns.adobe.com/AdobeIllustrator/10.0/">
	<!ENTITY ns_graphs "http://ns.adobe.com/Graphs/1.0/">
	<!ENTITY ns_vars "http://ns.adobe.com/Variables/1.0/">
	<!ENTITY ns_imrep "http://ns.adobe.com/ImageReplacement/1.0/">
	<!ENTITY ns_sfw "http://ns.adobe.com/SaveForWeb/1.0/">
	<!ENTITY ns_custom "http://ns.adobe.com/GenericCustomNamespace/1.0/">
	<!ENTITY ns_adobe_xpath "http://ns.adobe.com/XPath/1.0/">
]>
<svg version="1.1" id="SRF_zwei" xmlns:x="&ns_extend;" xmlns:i="&ns_ai;" xmlns:graph="&ns_graphs;"
	 xmlns="http://www.w3.org/2000/svg" xmlns:xlink="http://www.w3.org/1999/xlink" x="0px" y="0px" viewBox="0 0 1581.7 500"
	 style="enable-background:new 0 0 1581.7 500;" xml:space="preserve">
<style type="text/css">
	.st0{fill:#FFB600;}
	.st1{fill:#FFFFFF;}
</style>
<metadata>
	<sfw  xmlns="&ns_sfw;">
		<slices></slices>
		<sliceSourceBounds  bottomLeftOrigin="true" height="500" width="1581.7" x="818.3" y="250"></sliceSourceBounds>
	</sfw>
</metadata>
<g>
	<rect x="364.7" class="st0" width="1217" height="500"/>
	<rect x="1374.7" y="117.4" class="st1" width="92.1" height="267.6"/>
	<path class="st1" d="M1261.9,221.2c-0.7-16-3.5-28.2-8.4-36.8c-4.9-8.5-14.4-12.8-28.6-12.8c-12.9,0-22.5,3.4-28.9,10.2
		c-6.5,6.7-10.3,19.9-11.7,39.4H1261.9z M1330.6,377.7c-2.1,0.6-6.1,1.7-12.2,3.1c-6,1.3-13.4,2.8-21.9,4.4
		c-8.5,1.5-17.9,3-28.1,4.1c-10.2,1.2-20.7,1.9-31.5,1.9c-24.6,0-45.9-2.6-63.7-7.6c-17.9-5-32.5-13-44-24
		c-11.4-11-19.9-25.3-25.5-43c-5.6-17.8-8.4-39.3-8.4-64.7c0-46.3,10.9-81.2,32.8-105.1c21.8-23.9,54.1-35.8,96.8-35.8
		c20.1,0,37.5,2.4,52.3,7c14.7,4.7,27.1,12.1,36.9,22.4c9.9,10.3,17.3,23.5,22.2,39.7c4.9,16.1,7.3,35.9,7.3,59.2v38h-159.2
		c1,8.7,2.9,15.9,5.7,21.7c2.8,5.7,6.8,10.4,12,13.8c5.2,3.4,11.6,5.8,19.2,7.3c7.6,1.4,17,2.1,28.1,2.1c22.2,0,40.9-1.3,55.9-4.1
		c15.1-2.8,25.6-4.7,31.5-5.7L1330.6,377.7z"/>
	<polygon class="st1" points="997.1,117.4 978.2,239.2 946.2,117.4 872,117.4 840,239.2 821.1,117.4 719.7,117.4 782.1,385 
		869.1,385 906.4,249.3 944.1,385 1031.1,385 1093.6,117.4 	"/>
	<polygon class="st1" points="475.6,117.4 475.6,202.1 571.5,202.1 471.4,327.1 471.4,385 705.5,385 705.5,300.3 600.9,300.3 
		701.9,175.4 696.2,117.4 	"/>
	<rect class="st0" width="328.3" height="500"/>
	<path class="st1" d="M149.3,127.3h-32.9V63.9c0-4.9-1.7-6.3-6.5-6.3h-17c-4.8,0-6.5,1.4-6.5,6.3v92c0,4.8,1.7,6.2,6.5,6.2h142.5
		c4.9,0,6.6-1.4,6.6-6.2v-22.3c0-4.8-1.7-6.3-6.6-6.3h-56.1V69.7c0-4.8-1.7-6.3-6.5-6.3h-16.9c-4.8,0-6.5,1.5-6.5,6.3V127.3z"/>
	<path class="st1" d="M161.6,252.3l10.2,2.4c2.9,0.7,4.3,0.9,5.3,0.9c2.4,0,4.3-0.7,7.3-2.4l51.8-28.8c4.1-2.4,5.8-4.3,5.8-10.1
		v-26.4c0-3.4-2.2-7.5-8.2-3.7l-58.6,35.3c-7.5-11.8-18.1-25.2-41.6-25.2c-30.3,0-47.2,16.9-47.2,54.2v53.9c0,4.9,1.7,6.3,6.5,6.3
		h142.5c4.8,0,6.5-1.5,6.5-6.3v-22.2c0-4.9-1.7-6.3-6.5-6.3H115.2v-23c0-14.5,5.4-21.5,18.9-21.5c12.3,0,16.2,5.6,18.6,11.1
		C155.6,247.7,152.5,250.1,161.6,252.3"/>
	<path class="st1" d="M217,439.4l18.7,2.9c3.6,0.5,5.1-1.3,5.6-4.4c1-7,2.2-24.7,2.2-41.8c0-38.5-12.6-66.6-48.4-66.6
		c-21.1,0-36.8,9.2-45,41.1l-4.6,17.9c-3.2,12.1-7,17.7-15.9,17.7c-12.6,0-15-11.6-15-22.8c0-15,1.2-30.2,1.7-36.2
		c0.5-6.3-0.2-8-5.6-9l-18.1-2.9c-3.6-0.5-5.1,1.2-5.6,4.3c-1,7-2.2,22.5-2.2,42.1c0,39.9,17.4,59.2,45,59.2
		c24.9,0,39.7-13.5,45.7-37l4.6-17.9c3.9-14.8,8.2-21.1,17.4-21.1c13.6,0,16,9.2,16,31.5c0,10.1-1.5,27.8-1.9,33.8
		C211,436.8,211.7,438.5,217,439.4"/>
</g>
</svg>
