<?xml version="1.0" encoding="utf-8"?>
<!-- Generator: Adobe Illustrator 23.0.1, SVG Export Plug-In . SVG Version: 6.00 Build 0)  -->
<!DOCTYPE svg PUBLIC "-//W3C//DTD SVG 1.1//EN" "http://www.w3.org/Graphics/SVG/1.1/DTD/svg11.dtd" [
	<!ENTITY ns_extend "http://ns.adobe.com/Extensibility/1.0/">
	<!ENTITY ns_ai "http://ns.adobe.com/AdobeIllustrator/10.0/">
	<!ENTITY ns_graphs "http://ns.adobe.com/Graphs/1.0/">
	<!ENTITY ns_vars "http://ns.adobe.com/Variables/1.0/">
	<!ENTITY ns_imrep "http://ns.adobe.com/ImageReplacement/1.0/">
	<!ENTITY ns_sfw "http://ns.adobe.com/SaveForWeb/1.0/">
	<!ENTITY ns_custom "http://ns.adobe.com/GenericCustomNamespace/1.0/">
	<!ENTITY ns_adobe_xpath "http://ns.adobe.com/XPath/1.0/">
]>
<svg version="1.1" id="DESKTOP" xmlns:x="&ns_extend;" xmlns:i="&ns_ai;" xmlns:graph="&ns_graphs;"
	 xmlns="http://www.w3.org/2000/svg" xmlns:xlink="http://www.w3.org/1999/xlink" x="0px" y="0px" viewBox="0 0 1407.8 500"
	 style="enable-background:new 0 0 1407.8 500;" xml:space="preserve">
<style type="text/css">
	.st0{fill:#AF001E;}
	.st1{fill:#FFFFFF;}
</style>
<metadata>
	<sfw  xmlns="&ns_sfw;">
		<slices></slices>
		<sliceSourceBounds  bottomLeftOrigin="true" height="500" width="1407.8" x="692.2" y="250"></sliceSourceBounds>
	</sfw>
</metadata>
<g>
	<rect x="364.7" class="st0" width="1043.2" height="500"/>
	<path class="st1" d="M1231.1,289.4c-1.7,8.9-4.4,15.9-8,20.7c-3.3,4.4-7.3,7.5-12.3,9.3c-5.7,2.1-12.9,3.1-21.4,3.1
		s-15.7-1.1-21.3-3.1c-5-1.8-9-4.9-12.3-9.3c-3.6-4.8-6.3-11.8-8-20.7c-1.9-9.8-2.9-22.6-2.9-38c0-15.4,1-28.2,2.9-38.2
		c1.7-9.1,4.4-16.1,8-20.9c3.3-4.4,7.3-7.5,12.3-9.3c5.7-2.1,12.9-3.1,21.3-3.1c8.5,0,15.7,1.1,21.4,3.1c5,1.8,9,4.8,12.3,9.3
		c3.6,4.8,6.2,11.8,8,20.9c1.9,10,2.9,22.9,2.9,38.2C1234,266.7,1233,279.5,1231.1,289.4 M1303.1,188.5c-5.9-17.6-14.3-32-25-42.9
		c-10.9-11-24.1-19-39.5-23.7c-14.6-4.5-31.2-6.9-49.2-6.9c-18,0-34.5,2.3-49.2,6.9c-15.3,4.7-28.6,12.7-39.4,23.7
		c-10.7,10.9-19.1,25.3-25,42.9c-5.7,17-8.6,38.2-8.6,62.9c0,24.3,2.8,45.3,8.3,62.3c5.7,17.6,14,32.1,24.8,43
		c10.8,11,24.1,19,39.4,23.7c14.7,4.5,31.4,6.9,49.7,6.9s35-2.3,49.7-6.9c15.3-4.7,28.6-12.7,39.4-23.7c10.8-11,19.1-25.4,24.8-43
		c5.5-17.1,8.3-38.1,8.3-62.3C1311.7,226.8,1308.8,205.6,1303.1,188.5"/>
	<path class="st1" d="M1021.1,224.9h-81.9v-37.8h95.6c5.9,0,10.8-4.8,10.8-10.7V128c0-5.9-4.8-10.7-10.8-10.7H872.1
		c-5.9,0-10.7,4.8-10.7,10.7v246.4c0,5.9,4.8,10.7,10.7,10.7h56.4c5.9,0,10.7-4.8,10.7-10.7v-79.9h81.9c5.9,0,10.7-4.8,10.7-10.7
		v-48C1031.8,229.7,1027,224.9,1021.1,224.9"/>
	<path class="st1" d="M798.1,137.4c-8-7.2-17.8-12.5-29-15.7c-10.7-3-22.4-4.5-35-4.5H605.7c-5.9,0-10.7,4.8-10.7,10.8v246.3
		c0,5.9,4.8,10.7,10.7,10.7h56.9c5.9,0,10.7-4.8,10.7-10.7V189.5H719c7.1,0,16.6,1.1,20.7,6.4c3.9,5,6,12.8,6,23.2v155.2
		c0,5.9,4.8,10.7,10.7,10.7h56.4c5.9,0,10.7-4.8,10.7-10.7V205.1c0-15.2-2.2-28.5-6.6-39.6C812.4,154.1,806.1,144.7,798.1,137.4"/>
	<path class="st1" d="M546.6,117.3h-56.4c-5.9,0-10.7,4.8-10.7,10.7v246.3c0,5.9,4.8,10.7,10.7,10.7h56.4c5.9,0,10.7-4.8,10.7-10.7
		V128C557.3,122,552.5,117.3,546.6,117.3"/>
	<rect class="st0" width="328.3" height="500"/>
	<path class="st1" d="M149.3,127.3h-32.9V63.9c0-4.9-1.7-6.3-6.5-6.3h-17c-4.8,0-6.5,1.4-6.5,6.3v92c0,4.8,1.7,6.2,6.5,6.2h142.5
		c4.9,0,6.6-1.4,6.6-6.2v-22.3c0-4.8-1.7-6.3-6.6-6.3h-56.1V69.7c0-4.8-1.7-6.3-6.5-6.3h-16.9c-4.8,0-6.5,1.5-6.5,6.3V127.3z"/>
	<path class="st1" d="M161.6,252.3l10.2,2.4c2.9,0.7,4.3,0.9,5.3,0.9c2.4,0,4.3-0.7,7.3-2.4l51.8-28.8c4.1-2.4,5.8-4.3,5.8-10.1
		v-26.4c0-3.4-2.2-7.5-8.2-3.7l-58.6,35.3c-7.5-11.8-18.1-25.2-41.6-25.2c-30.3,0-47.2,16.9-47.2,54.2v53.9c0,4.9,1.7,6.3,6.5,6.3
		h142.5c4.8,0,6.5-1.5,6.5-6.3v-22.2c0-4.9-1.7-6.3-6.5-6.3H115.1v-23c0-14.5,5.4-21.5,18.9-21.5c12.3,0,16.2,5.6,18.6,11.1
		C155.6,247.7,152.4,250.1,161.6,252.3"/>
	<path class="st1" d="M217,439.4l18.7,2.9c3.6,0.5,5.1-1.3,5.6-4.4c1-7,2.2-24.7,2.2-41.8c0-38.5-12.6-66.6-48.4-66.6
		c-21.1,0-36.8,9.2-45,41.1l-4.6,17.9c-3.2,12.1-7,17.7-15.9,17.7c-12.6,0-15-11.6-15-22.8c0-15,1.2-30.2,1.7-36.2
		c0.5-6.3-0.2-8-5.6-9l-18.1-2.9c-3.6-0.5-5.1,1.2-5.6,4.3c-1,7-2.2,22.5-2.2,42.1c0,39.9,17.4,59.2,45,59.2
		c24.9,0,39.7-13.5,45.7-37l4.6-17.9c3.9-14.8,8.2-21.1,17.4-21.1c13.6,0,16,9.2,16,31.5c0,10.1-1.5,27.8-1.9,33.8
		C211,436.8,211.7,438.5,217,439.4"/>
</g>
</svg>
